<svg viewBox="0 0 512 512" xmlns="http://www.w3.org/2000/svg" width="64" height="64">
  <path fill="#ffe0e6" fill-rule="evenodd" clip-rule="evenodd" d="M216.733 456.001v-160h58.532c10.999 0 20-9.001 20-20V216h161.469c11 0 20 9 20 20v79.487l21.581 21.581c4.913 4.913 4.913 12.951 0 17.864l-21.581 21.581V456c0 11-9.001 20-20 20H236.733c-10.999.001-20-9-20-19.999z"/>
  <path fill="#fff" fill-rule="evenodd" clip-rule="evenodd" d="M275.265 296.002H55.264c-10.999 0-20-8.999-20-20v-79.488l-21.581-21.58c-4.913-4.913-4.913-12.952 0-17.865l21.581-21.581V56.001c0-11 9-20 20-20h220.001c11 0 20 9.001 20 20v220.001c0 10.999-9.001 20-20 20z"/>
  <path fill="#e3eaef" d="M95.266 96.001h139.997c5.523 0 10-4.478 10-10s-4.477-10-10-10H95.266c-5.523 0-10 4.478-10 10s4.477 10 10 10zm0 40h139.997c5.523 0 10-4.478 10-10s-4.477-10-10-10H95.266c-5.523 0-10 4.478-10 10s4.477 10 10 10zm0 40h139.997c5.523 0 10-4.478 10-10s-4.477-10-10-10H95.266c-5.523 0-10 4.478-10 10s4.477 10 10 10zm0 40h69.999c5.523 0 10-4.478 10-10s-4.477-10-10-10H95.266c-5.523 0-10 4.478-10 10s4.477 10 10 10zm0 40h69.999c5.523 0 10-4.478 10-10s-4.477-10-10-10H95.266c-5.523 0-10 4.478-10 10s4.477 10 10 10z"/>
  <path fill="#ffbecb" d="M346.734 276h69.998c5.523 0 10-4.478 10-10s-4.477-10-10-10h-69.998c-5.523 0-10 4.478-10 10s4.477 10 10 10zm0 40h69.998c5.523 0 10-4.478 10-10s-4.477-10-10-10h-69.998c-5.523 0-10 4.478-10 10s4.477 10 10 10zm-69.999 40h139.997c5.523 0 10-4.478 10-10s-4.477-10-10-10H276.735c-5.523 0-10 4.478-10 10s4.477 10 10 10zm0 40h139.997c5.523 0 10-4.478 10-10s-4.477-10-10-10H276.735c-5.523 0-10 4.478-10 10s4.477 10 10 10zm0 40h139.997c5.523 0 10-4.478 10-10s-4.477-10-10-10H276.735c-5.523 0-10 4.478-10 10s4.477 10 10 10z"/>
  <path fill="#ff5d7d" d="M6.612 149.999l18.652-18.652V56c0-16.542 13.458-29.999 30-29.999h220.001c16.542 0 30 13.457 30 29.999v150h151.469c16.542 0 30 13.458 30 30v75.345l18.652 18.653C509.651 334.262 512 339.946 512 346c0 6.056-2.349 11.739-6.614 16.004l-18.652 18.652v75.345c0 16.542-13.458 29.999-30 29.999H236.733c-16.542 0-30-13.457-30-29.999v-150H55.264c-16.542 0-30-13.458-30-30v-75.345L6.612 182.005c-4.265-4.266-6.614-9.948-6.614-16.004s2.349-11.739 6.614-16.002zm220.121 306.002c0 5.514 4.486 9.999 10 9.999h220.001c5.514 0 10-4.485 10-9.999v-79.487c0-2.652 1.054-5.195 2.929-7.071l21.581-21.581c.657-.657.756-1.448.756-1.862s-.098-1.203-.755-1.86l-21.582-21.581a10.003 10.003 0 01-2.929-7.071V236c0-5.514-4.486-10-10-10H305.265v50.001c0 16.542-13.458 30-30 30h-48.532zM20.754 167.863l21.581 21.58a10.001 10.001 0 012.929 7.071v79.487c0 5.514 4.486 10 10 10h220.001c5.514 0 10-4.486 10-10V56c0-5.514-4.486-9.999-10-9.999H55.264c-5.514 0-10 4.485-10 9.999v79.487c0 2.652-1.054 5.195-2.929 7.071l-21.582 21.583c-.657.656-.755 1.447-.755 1.859.001.415.099 1.206.756 1.863z"/>
</svg>
